<?xml version="1.0" encoding="UTF-8"?>
<svg xmlns="http://www.w3.org/2000/svg" xmlns:xlink="http://www.w3.org/1999/xlink" width="48pt" height="48pt" viewBox="0 0 48 48" version="1.1">
<g id="surface1567625">
<path style=" stroke:none;fill-rule:nonzero;fill:rgb(100%,100%,100%);fill-opacity:1;" d="M 34.871094 27.296875 L 31.871094 19.296875 C 31.804688 19.121094 31.714844 18.953125 31.601562 18.800781 L 25.601562 10.800781 C 25.582031 10.777344 25.558594 10.757812 25.539062 10.734375 C 27.542969 10.082031 29 8.222656 29 6 C 29 3.238281 26.761719 1 24 1 C 21.238281 1 19 3.238281 19 6 C 19 8.21875 20.453125 10.074219 22.453125 10.730469 L 16.800781 17.191406 L 11.300781 12.480469 C 10.464844 11.761719 9.199219 11.859375 8.480469 12.699219 C 7.761719 13.535156 7.859375 14.800781 8.699219 15.519531 L 15.699219 21.519531 C 16.53125 22.230469 17.78125 22.140625 18.507812 21.316406 L 22 17.324219 L 22 26.675781 L 16.101562 44.367188 C 15.753906 45.414062 16.320312 46.546875 17.367188 46.898438 C 18.410156 47.246094 19.550781 46.679688 19.898438 45.632812 L 24 33.324219 L 28.101562 45.632812 C 28.382812 46.472656 29.160156 47 30 47 C 30.210938 47 30.421875 46.96875 30.632812 46.898438 C 31.679688 46.546875 32.246094 45.414062 31.898438 44.367188 L 26 26.675781 L 26 18 L 28.226562 20.972656 L 31.128906 28.703125 C 31.429688 29.503906 32.191406 30 33 30 C 33.234375 30 33.472656 29.960938 33.703125 29.871094 C 34.734375 29.484375 35.261719 28.332031 34.871094 27.296875 Z M 34.871094 27.296875 "/>
<path style=" stroke:none;fill-rule:nonzero;fill:rgb(100%,100%,100%);fill-opacity:1;" d="M 24 2 C 22.894531 2 22 2.894531 22 4 C 22 5.105469 22.894531 6 24 6 C 25.105469 6 26 5.105469 26 4 C 26 2.894531 25.105469 2 24 2 Z M 33 26 C 31.894531 26 31 26.894531 31 28 C 31 29.105469 31.894531 30 33 30 C 34.105469 30 35 29.105469 35 28 C 35 26.894531 34.105469 26 33 26 Z M 10 12 C 8.894531 12 8 12.894531 8 14 C 8 15.105469 8.894531 16 10 16 C 11.105469 16 12 15.105469 12 14 C 12 12.894531 11.105469 12 10 12 Z M 17 18 C 15.894531 18 15 18.894531 15 20 C 15 21.105469 15.894531 22 17 22 C 18.105469 22 19 21.105469 19 20 C 19 18.894531 18.105469 18 17 18 Z M 24 10 C 22.894531 10 22 10.894531 22 12 C 22 13.105469 22.894531 14 24 14 C 25.105469 14 26 13.105469 26 12 C 26 10.894531 25.105469 10 24 10 Z M 30 18 C 28.894531 18 28 18.894531 28 20 C 28 21.105469 28.894531 22 30 22 C 31.105469 22 32 21.105469 32 20 C 32 18.894531 31.105469 18 30 18 Z M 24 18 C 22.894531 18 22 18.894531 22 20 C 22 21.105469 22.894531 22 24 22 C 25.105469 22 26 21.105469 26 20 C 26 18.894531 25.105469 18 24 18 Z M 30 43 C 28.894531 43 28 43.894531 28 45 C 28 46.105469 28.894531 47 30 47 C 31.105469 47 32 46.105469 32 45 C 32 43.894531 31.105469 43 30 43 Z M 27 34 C 25.894531 34 25 34.894531 25 36 C 25 37.105469 25.894531 38 27 38 C 28.105469 38 29 37.105469 29 36 C 29 34.894531 28.105469 34 27 34 Z M 21 34 C 19.894531 34 19 34.894531 19 36 C 19 37.105469 19.894531 38 21 38 C 22.105469 38 23 37.105469 23 36 C 23 34.894531 22.105469 34 21 34 Z M 18 43 C 16.894531 43 16 43.894531 16 45 C 16 46.105469 16.894531 47 18 47 C 19.105469 47 20 46.105469 20 45 C 20 43.894531 19.105469 43 18 43 Z M 18 43 "/>
<path style=" stroke:none;fill-rule:nonzero;fill:rgb(100%,100%,100%);fill-opacity:1;" d="M 24 26 C 22.894531 26 22 26.894531 22 28 C 22 29.105469 22.894531 30 24 30 C 25.105469 30 26 29.105469 26 28 C 26 26.894531 25.105469 26 24 26 Z M 24 26 "/>
</g>
</svg>
