<?xml version="1.0" encoding="UTF-8"?>
<svg xmlns="http://www.w3.org/2000/svg" xmlns:xlink="http://www.w3.org/1999/xlink" width="40pt" height="40pt" viewBox="0 0 40 40" version="1.1">
<g id="surface1574462">
<path style=" stroke:none;fill-rule:nonzero;fill:rgb(100%,100%,100%);fill-opacity:1;" d="M 29.0625 22.75 L 26.5625 16.082031 C 26.503906 15.933594 26.429688 15.792969 26.335938 15.667969 L 21.335938 9 C 21.320312 8.980469 21.296875 8.964844 21.28125 8.945312 C 22.953125 8.402344 24.167969 6.851562 24.167969 5 C 24.167969 2.699219 22.300781 0.832031 20 0.832031 C 17.699219 0.832031 15.832031 2.699219 15.832031 5 C 15.832031 6.847656 17.046875 8.398438 18.710938 8.941406 L 14 14.328125 L 9.417969 10.402344 C 8.71875 9.800781 7.667969 9.882812 7.066406 10.582031 C 6.46875 11.28125 6.550781 12.332031 7.25 12.933594 L 13.082031 17.933594 C 13.777344 18.527344 14.820312 18.453125 15.421875 17.761719 L 18.332031 14.4375 L 18.332031 22.230469 L 13.417969 36.972656 C 13.128906 37.847656 13.601562 38.789062 14.472656 39.082031 C 15.34375 39.371094 16.289062 38.902344 16.582031 38.027344 L 20 27.769531 L 23.417969 38.027344 C 23.652344 38.726562 24.300781 39.167969 25 39.167969 C 25.175781 39.167969 25.351562 39.140625 25.527344 39.082031 C 26.402344 38.789062 26.871094 37.847656 26.582031 36.972656 L 21.667969 22.230469 L 21.667969 15 L 23.523438 17.476562 L 25.9375 23.917969 C 26.191406 24.585938 26.824219 25 27.5 25 C 27.695312 25 27.890625 24.964844 28.085938 24.894531 C 28.945312 24.570312 29.382812 23.609375 29.0625 22.75 Z M 29.0625 22.75 "/>
<path style=" stroke:none;fill-rule:nonzero;fill:rgb(100%,100%,100%);fill-opacity:1;" d="M 20 1.667969 C 19.078125 1.667969 18.332031 2.414062 18.332031 3.332031 C 18.332031 4.253906 19.078125 5 20 5 C 20.921875 5 21.667969 4.253906 21.667969 3.332031 C 21.667969 2.414062 20.921875 1.667969 20 1.667969 Z M 27.5 21.667969 C 26.578125 21.667969 25.832031 22.414062 25.832031 23.332031 C 25.832031 24.253906 26.578125 25 27.5 25 C 28.421875 25 29.167969 24.253906 29.167969 23.332031 C 29.167969 22.414062 28.421875 21.667969 27.5 21.667969 Z M 8.332031 10 C 7.414062 10 6.667969 10.746094 6.667969 11.667969 C 6.667969 12.585938 7.414062 13.332031 8.332031 13.332031 C 9.253906 13.332031 10 12.585938 10 11.667969 C 10 10.746094 9.253906 10 8.332031 10 Z M 14.167969 15 C 13.246094 15 12.5 15.746094 12.5 16.667969 C 12.5 17.585938 13.246094 18.332031 14.167969 18.332031 C 15.085938 18.332031 15.832031 17.585938 15.832031 16.667969 C 15.832031 15.746094 15.085938 15 14.167969 15 Z M 20 8.332031 C 19.078125 8.332031 18.332031 9.078125 18.332031 10 C 18.332031 10.921875 19.078125 11.667969 20 11.667969 C 20.921875 11.667969 21.667969 10.921875 21.667969 10 C 21.667969 9.078125 20.921875 8.332031 20 8.332031 Z M 25 15 C 24.078125 15 23.332031 15.746094 23.332031 16.667969 C 23.332031 17.585938 24.078125 18.332031 25 18.332031 C 25.921875 18.332031 26.667969 17.585938 26.667969 16.667969 C 26.667969 15.746094 25.921875 15 25 15 Z M 20 15 C 19.078125 15 18.332031 15.746094 18.332031 16.667969 C 18.332031 17.585938 19.078125 18.332031 20 18.332031 C 20.921875 18.332031 21.667969 17.585938 21.667969 16.667969 C 21.667969 15.746094 20.921875 15 20 15 Z M 25 35.832031 C 24.078125 35.832031 23.332031 36.578125 23.332031 37.5 C 23.332031 38.421875 24.078125 39.167969 25 39.167969 C 25.921875 39.167969 26.667969 38.421875 26.667969 37.5 C 26.667969 36.578125 25.921875 35.832031 25 35.832031 Z M 22.5 28.332031 C 21.578125 28.332031 20.832031 29.078125 20.832031 30 C 20.832031 30.921875 21.578125 31.667969 22.5 31.667969 C 23.421875 31.667969 24.167969 30.921875 24.167969 30 C 24.167969 29.078125 23.421875 28.332031 22.5 28.332031 Z M 17.5 28.332031 C 16.578125 28.332031 15.832031 29.078125 15.832031 30 C 15.832031 30.921875 16.578125 31.667969 17.5 31.667969 C 18.421875 31.667969 19.167969 30.921875 19.167969 30 C 19.167969 29.078125 18.421875 28.332031 17.5 28.332031 Z M 15 35.832031 C 14.078125 35.832031 13.332031 36.578125 13.332031 37.5 C 13.332031 38.421875 14.078125 39.167969 15 39.167969 C 15.921875 39.167969 16.667969 38.421875 16.667969 37.5 C 16.667969 36.578125 15.921875 35.832031 15 35.832031 Z M 15 35.832031 "/>
<path style=" stroke:none;fill-rule:nonzero;fill:rgb(100%,100%,100%);fill-opacity:1;" d="M 20 21.667969 C 19.078125 21.667969 18.332031 22.414062 18.332031 23.332031 C 18.332031 24.253906 19.078125 25 20 25 C 20.921875 25 21.667969 24.253906 21.667969 23.332031 C 21.667969 22.414062 20.921875 21.667969 20 21.667969 Z M 20 21.667969 "/>
</g>
</svg>
