<?xml version="1.0" encoding="utf-8"?>
<!-- Svg Vector Icons : http://www.onlinewebfonts.com/icon -->
<!DOCTYPE svg PUBLIC "-//W3C//DTD SVG 1.1//EN" "http://www.w3.org/Graphics/SVG/1.1/DTD/svg11.dtd">
<svg version="1.1" xmlns="http://www.w3.org/2000/svg" xmlns:xlink="http://www.w3.org/1999/xlink" x="0px" y="0px" viewBox="0 0 1000 1000" enable-background="new 0 0 1000 1000" xml:space="preserve">
<metadata> Svg Vector Icons : http://www.onlinewebfonts.com/icon </metadata>
<g><g><g><path d="M984.1,567.8c-5.2-5-12.9-24.4-18-29.5c-0.6-0.6-1.2-1.9-1.1-2.7c1.5-8.3-3.3-13.8-8.2-19.3c-3.3-3.8-6.8-7.4-10.4-11.3c9-5.4,11.8-14.3,13.7-23.6c0-0.1,0-0.3,0-0.4c1.1-7.5,1.2-6.6-6.6-6.3c-11.6,0.5-22,4.5-32.7,8.2c-3.9,1.3-8.4,0.9-12.6,0.9c-6.4-0.1-12.8-0.5-19.2-0.7c-8.1-0.3-16.3-0.8-24.4-0.8c-19.6,0.1-39.1,0.6-58.6,0.7c-7.9,0-15.7-0.3-23.6-1c-7-0.6-14-3-20.9-2.7c-20,0.8-39.3-2.8-58.6-7.3c-20.4-4.8-40.7-11.1-61.4-14c-16.3-2.3-33.2-0.4-49.8-0.3c-2.1,0-4.2,0.5-6.3,0.5c-29.9,0.4-59.3,3.6-87.4,14.5c-12.5,4.8-24.7,10.2-37.1,15.5l-0.3,1.5c-3.3-2.7-6.6-5.4-9.9-8.1c-12.6-10.3-25.2-20.6-37.8-30.8c-16.7-13.5-33.6-26.8-50.2-40.4c-16.1-13.1-34.9-20-52.3-30c-3.4-1.9-7-3.3-10.6-4.8c-11-4.6-22.4-7.3-34.2-8.3c-10.3-0.9-20.5-2.5-30.8-3.6c-9.4-1-18.8-1.7-28.2-2.7c-8.7-0.9-17.4-1.8-26.1-2.8c-10.1-1.2-20.3-2.2-30.4-3.8c-13.7-2.2-27.4-4.5-40.9-7.3c-13.8-2.8-27.2-7.2-38.7-16.7c-7.1-5.9-14.5-11.3-20.4-19.4c-3.9-5.4-10.9-8-16.8-11.1c-4.6-2.5-9.8-0.2-12.9,4.5c-0.7,1.1-1.5,2.1-2.1,3.3c-2.4,4.9-5.5,9.6-6.8,14.9c-1.3,5.1-0.6,10.8-1.1,16.2c-1.3,12.5,2.5,23.8,6.1,35c3.1,9.7,10.5,16.2,17.9,21.3c10.4,7.2,21.6,12.9,32.6,18.7c8.3,4.4,16.9,8.1,25.5,11.7c5.2,2.2,10.7,4.3,16.1,5.1c8,1.2,16.2,1.1,24.3,1.5c12.9,0.6,25.8,0.9,38.7,2c8.3,0.7,16.6,1.9,24.6,4c19.4,5.1,38.8,10.3,57.9,16.5c14.2,4.6,28,10.6,42.1,16c10.7,4.1,19.9,11.1,29.5,17.5c10.5,6.9,20.9,14,31,21.6c22.5,16.7,46.6,30,71.3,42.2c6.1,3,12.2,6,18.4,9l-0.5,2.7c0.8,0.3,1.5,2.5,1.4,3.7c-1.1,11.8,4.5,20.3,12.9,27.5c1.1,1,2.1,2.1,3.1,3.1c3.3,3.4,3.1,4.4,0,8c-4.4,5.2-10.1,7.9-16.5,9.5c-0.7,0.2-1.7,0.8-1.7,1.3c-1.3,11.2-4.9,22.5-0.6,33.7c1.9,4.9,5.5,9.2,8.6,13.6c3.2,4.5,6.4,9.1,10.2,13.1c4.1,4.3,9.2,7.6,13.2,12c3.7,4.1,8.5,6.6,13.3,7.6c7.3,1.5,15,1.3,22.5,1.4c1.6,0,3.3-0.1,4.9-0.3l-0.1,0.2c0,0,0.1,0,0.2,0c0.1,0,0.3,0,0.6,0c0.5,0,1.2,0,2.1,0c1.7,0,4.1,0.1,6.4,0.4c2.3,0.3,4.6,0.8,6.1,1.6c0.4,0.2,0.7,0.4,1,0.6c0.3,0.2,0.5,0.4,0.7,0.6c0.3,0.4,0.4,0.7,0.5,0.7c0,0,0-0.1,0-0.2c0-0.1,0-0.4,0-0.7c0-0.3-0.1-0.6-0.2-1c-0.1-0.4-0.3-0.8-0.5-1.3c-0.2-0.5-0.5-0.9-0.9-1.4c-0.3-0.5-0.7-1-1.1-1.4c-0.6-0.7-1.3-1.5-2.1-2.2c1.3,0.1,2.8,0.2,4.3,0.4c2.3,0.3,4.6,0.8,6.1,1.6c0.4,0.2,0.7,0.4,1,0.6c0.3,0.2,0.5,0.4,0.7,0.6c0.3,0.4,0.4,0.7,0.5,0.7c0,0,0-0.1,0-0.2c0-0.1,0-0.4,0-0.7c0-0.3-0.1-0.6-0.2-1c-0.1-0.4-0.3-0.8-0.5-1.3c-0.2-0.5-0.5-0.9-0.9-1.4c-0.3-0.5-0.7-1-1.1-1.4c-0.8-1-1.8-1.9-2.8-2.8c-1.3-1.2-2.6-2.3-3.9-3.2c1.9,0.3,3.8,0.8,5.1,1.4c0.4,0.2,0.7,0.4,1,0.6c0.3,0.2,0.5,0.4,0.7,0.6c0.3,0.4,0.4,0.7,0.5,0.7c0,0,0-0.1,0-0.2s0-0.4,0-0.7c0-0.3-0.1-0.6-0.2-1c-0.1-0.4-0.3-0.8-0.5-1.3c-0.2-0.5-0.5-0.9-0.9-1.4c-0.3-0.5-0.7-1-1.1-1.4c-0.8-1-1.8-1.9-2.7-2.8c-0.8-0.7-1.6-1.4-2.4-2.1c-0.8-0.9-1.8-1.7-2.7-2.6c-6-5.9-12.6-2-18.8-1c-2,0.3-3.3,0.5-4.8-0.6c-3.5-2.6-7-5.2-11-8.2c6.1-2.9,11.4-5.6,16.8-8.1c9.3-4.3,18.6-8.6,28-12.7c4.8-2.1,9.8-3.8,14.7-5.4c1.4-0.4,4-0.2,4.6,0.7c0.8,1.2,0.6,3.4,0.1,5.1c-1.4,5.5-3.1,10.8-4.6,16.3c-0.2,0.6,0.2,1.6,0.6,2.2c2.5,3.3,4.9,6.7,7.5,9.9c3.9,4.8,9,7.9,14.9,9.1c10.6,2.1,21.2,4.2,31.8,5.6c10,1.3,20.1,1.9,30.1,2.8c0.9,0.1,1.9-0.1,2.7,0.2c3.5,1.1,6.6,0.8,9-0.8c1.6,0.1,3.6,0.2,5.5,0.4c1.2,0.2,2.3,0.4,3.4,0.6c0.5,0.1,1,0.3,1.5,0.5c0.5,0.2,0.9,0.4,1.3,0.5c0.4,0.2,0.7,0.4,1,0.6c0.3,0.2,0.5,0.4,0.7,0.6c0.2,0.2,0.3,0.4,0.4,0.5c0.1,0.1,0.1,0.2,0.1,0.2s0-0.1,0-0.2c0-0.2,0-0.4,0-0.7c0-0.3-0.1-0.7-0.2-1.1c-0.1-0.4-0.3-0.8-0.6-1.3c-0.2-0.5-0.5-1-0.9-1.4c-0.3-0.5-0.7-1-1.2-1.5c-0.7-0.8-1.5-1.6-2.3-2.4c1.4,0.1,3.1,0.2,4.7,0.4c1.2,0.2,2.3,0.4,3.4,0.6c0.5,0.1,1,0.3,1.5,0.5c0.5,0.2,0.9,0.4,1.3,0.5c0.4,0.2,0.7,0.4,1,0.6c0.3,0.2,0.5,0.4,0.7,0.6c0.2,0.2,0.3,0.4,0.4,0.5c0.1,0.1,0.1,0.2,0.1,0.2s0-0.1,0-0.2c0-0.2,0-0.4,0-0.7c0-0.3-0.1-0.7-0.2-1.1c-0.1-0.4-0.3-0.8-0.6-1.3c-0.2-0.5-0.5-1-0.9-1.4c-0.3-0.5-0.7-1-1.2-1.5c-0.8-1-1.8-2-2.8-2.9c-1.3-1.2-2.7-2.3-4-3.3c0.2,0,0.4,0,0.6,0c0.6,0.1,1.3,0.2,1.9,0.4c0.5,0.1,1,0.3,1.5,0.5c0.5,0.2,0.9,0.4,1.3,0.5c0.4,0.2,0.7,0.4,1,0.6c0.3,0.2,0.5,0.4,0.7,0.6c0.2,0.2,0.3,0.4,0.4,0.5c0.1,0.1,0.1,0.2,0.1,0.2s0-0.1,0-0.2c0-0.2,0-0.4,0-0.7c0-0.3-0.1-0.7-0.2-1.1c-0.1-0.4-0.3-0.8-0.6-1.3c-0.2-0.5-0.5-1-0.9-1.4c-0.3-0.5-0.7-1-1.2-1.5c-0.8-1-1.8-2-2.8-2.9c-2-1.8-4.2-3.5-5.8-4.7c-0.8-0.6-1.5-1.1-2.1-1.4c-0.3-0.2-0.5-0.3-0.6-0.4c-0.2-0.1-0.3-0.1-0.2-0.1l0,0.1c0,0-0.1,0-0.1-0.1c-3.1-0.5-6.4-0.2-9.6-0.1c-12.8,0.6-25.7,2.5-38.1-3.8c5.6-9.1,10.4-18.6,12.2-29.3c1.2-6.9,2.1-13.8,2.9-20.7c0.7-6,1.7-6.8,8-5.3c1.9,0.5,4.1,0.1,6.1,0.2c4.5,0.2,9,0.3,13.5,0.8c6.3,0.6,12.5,1.6,18.8,2.3c2.8,0.3,5.6,0,8.3,0c-0.5,7.6-1,14.7-1.3,21.9c-0.4,8.8-0.9,17.6-0.7,26.4c0.2,6.3,1.1,12.6,2.5,18.8c1.7,7.8,7.9,11.3,15,13.5c4,1.2,8.3,3,12.3,2.7c8.2-0.6,16.7,1.3,24.7-2.2c1.4-0.6,3-0.6,4.5-0.9c1.3,0,2.9,0.2,4.5,0.4c1.7,0.3,3.3,0.7,4.4,1.3c0.3,0.2,0.5,0.3,0.7,0.5c0.2,0.2,0.4,0.3,0.5,0.5c0.2,0.3,0.3,0.5,0.3,0.5c0,0,0-0.2,0-0.6c0-0.2-0.1-0.5-0.2-0.7c-0.1-0.3-0.2-0.6-0.4-0.9c-0.7-1.3-2.1-2.7-3.5-4l0,0c1.1,0.1,2.5,0.2,3.9,0.4c1.7,0.3,3.3,0.7,4.4,1.3c0.3,0.1,0.5,0.3,0.7,0.5c0.2,0.2,0.4,0.3,0.5,0.5c0.2,0.3,0.3,0.5,0.3,0.5c0,0,0-0.2,0-0.6c0-0.2-0.1-0.5-0.2-0.7c-0.1-0.3-0.2-0.6-0.4-0.9c-0.7-1.3-2.1-2.7-3.5-4c-1.3-1.1-2.6-2.1-3.7-2.9c0.1,0,0.2,0,0.3,0c1.7,0.3,3.3,0.7,4.4,1.3c0.3,0.1,0.5,0.3,0.7,0.5c0.2,0.2,0.4,0.3,0.5,0.5c0.2,0.3,0.3,0.5,0.3,0.5c0,0,0-0.2,0-0.6c0-0.2-0.1-0.5-0.2-0.7c-0.1-0.3-0.2-0.6-0.4-0.9c-0.5-1-1.5-2.1-2.5-3.1c0.6-0.5,1.6-0.5,2.5-0.8c-0.9-2.9-1.2-2.3-8.6-5.4c-3.7-1.5-6.8-3.7-11.1-3.3c-3.8,0.3-7.7,0.1-11.6,0.1c-3.5-11,1-20.1,6.3-28.8c4.1-6.8,8.9-13.2,13.1-19.9c1.3-2.1,2.4-2,4.5-1.5c11.1,2.7,17.8,10.4,23.1,19.7c4.7,8.4,9.2,16.9,13.6,25.4c1,2,1.1,4.5,1.8,6.7c0.3,1,0.8,2.1,1.6,2.7c7.9,6.1,16.2,11.8,23.7,18.4c8.2,7.3,17.5,8.9,27.7,8.1c10.1-0.8,20.3-1.6,30.4-2.8c0.1,0,0.2,0,0.3,0c0.2,0,0.4,0,0.6,0c1.3,0,3,0.2,4.7,0.4c1.7,0.3,3.3,0.7,4.4,1.3c0.3,0.1,0.5,0.3,0.7,0.5c0.2,0.2,0.4,0.3,0.5,0.5c0.2,0.3,0.3,0.5,0.3,0.5c0,0,0-0.2,0-0.6c0-0.2-0.1-0.5-0.2-0.7c-0.1-0.3-0.2-0.6-0.4-0.9c-0.7-1.3-2.1-2.8-3.5-4l0,0c1.1,0.1,2.5,0.2,3.9,0.4c1.7,0.3,3.3,0.7,4.4,1.3c0.3,0.1,0.5,0.3,0.7,0.5s0.4,0.3,0.5,0.5c0.2,0.3,0.3,0.5,0.3,0.5c0,0,0.1-0.2,0-0.6c0-0.2-0.1-0.5-0.2-0.7c-0.1-0.3-0.2-0.6-0.4-0.9c-0.7-1.3-2.1-2.7-3.5-4c-1.3-1.1-2.6-2.1-3.7-2.9c0.1,0,0.2,0,0.3,0c1.7,0.3,3.3,0.7,4.4,1.3c0.3,0.1,0.5,0.3,0.7,0.5c0.2,0.2,0.4,0.3,0.5,0.5c0.2,0.3,0.3,0.5,0.3,0.5c0,0,0-0.2,0-0.6c0-0.2-0.1-0.5-0.2-0.7c-0.1-0.3-0.2-0.6-0.4-0.9c-0.7-1.3-2.1-2.8-3.5-4c-1.4-1.3-3-2.4-4.2-3.2c-0.4-0.3-0.8-0.5-1.1-0.7c-6-4.5-12.9-5.7-21-4.1c-5.3,1-10.9,0.8-16.3,0.9c-2.7,0.1-6.4-3.6-6.2-6.3c0.7-12.8,1.2-25.6,2.4-38.3c0.7-6.9,2.4-13.7,4-20.5c0.5-2.2,1.8-4.4,3.2-6.3c4.1-5.8,8.2-11.6,12.8-16.9c1.4-1.6,4.4-2.5,6.7-2.6c7.2-0.1,14.4,0.6,21.6,0.6c5.1,0,10.1-0.6,15.2-0.7c4.2-0.1,8.4-0.1,12.6,0c1.1,0,2.7,0.1,3.3,0.8c3,3.3,5.4-1.9,9.1-1.7c7.7,0.3,15.6-1.2,23,0.4c8.6,1.8,5.7,5.7,14.1,6c9.3,0.3,26.5,5.3,30-3.2c2.4-6,6.1-6.2,6.2-12.3c0-0.8-1.2-1.5-1.1-1.8C987.2,571,985.7,569.3,984.1,567.8z"/></g></g><g></g><g></g><g></g><g></g><g></g><g></g><g></g><g></g><g></g><g></g><g></g><g></g><g></g><g></g><g></g></g>
</svg>